<svg xmlns="http://www.w3.org/2000/svg" width="1024" height="1024" viewBox="0 0 1024 1024">
  <defs>
    <linearGradient id="bg" x1="172" y1="112" x2="852" y2="912" gradientUnits="userSpaceOnUse">
      <stop offset="0" stop-color="#173042"/>
      <stop offset="0.55" stop-color="#0d1720"/>
      <stop offset="1" stop-color="#122c33"/>
    </linearGradient>
    <linearGradient id="glass" x1="190" y1="132" x2="834" y2="864" gradientUnits="userSpaceOnUse">
      <stop offset="0" stop-color="#ffffff" stop-opacity="0.24"/>
      <stop offset="0.46" stop-color="#ffffff" stop-opacity="0.06"/>
      <stop offset="1" stop-color="#000000" stop-opacity="0.12"/>
    </linearGradient>
    <linearGradient id="line" x1="214" y1="635" x2="810" y2="334" gradientUnits="userSpaceOnUse">
      <stop offset="0" stop-color="#45d9c2"/>
      <stop offset="0.55" stop-color="#49e59b"/>
      <stop offset="1" stop-color="#74f6d3"/>
    </linearGradient>
    <filter id="shadow" x="-20%" y="-20%" width="140%" height="140%">
      <feDropShadow dx="0" dy="26" stdDeviation="34" flood-color="#000000" flood-opacity="0.35"/>
    </filter>
    <filter id="glow" x="-40%" y="-40%" width="180%" height="180%">
      <feGaussianBlur stdDeviation="14" result="blur"/>
      <feMerge>
        <feMergeNode in="blur"/>
        <feMergeNode in="SourceGraphic"/>
      </feMerge>
    </filter>
  </defs>
  <rect x="92" y="92" width="840" height="840" rx="196" fill="url(#bg)" filter="url(#shadow)"/>
  <rect x="114" y="114" width="796" height="796" rx="174" fill="url(#glass)"/>
  <path d="M205 660 C292 656 314 556 382 552 C455 548 438 684 508 676 C597 666 565 370 663 363 C740 358 762 478 819 472" fill="none" stroke="url(#line)" stroke-width="58" stroke-linecap="round" stroke-linejoin="round" filter="url(#glow)"/>
  <path d="M216 715 H814" stroke="#ffffff" stroke-opacity="0.18" stroke-width="20" stroke-linecap="round"/>
  <circle cx="663" cy="363" r="74" fill="#49e59b" fill-opacity="0.18"/>
  <circle cx="663" cy="363" r="42" fill="#74f6d3"/>
  <circle cx="819" cy="472" r="50" fill="#102329"/>
  <circle cx="819" cy="472" r="28" fill="#74f6d3"/>
  <path d="M254 292 H398 M254 366 H476" stroke="#ffffff" stroke-opacity="0.88" stroke-width="42" stroke-linecap="round"/>
  <text x="514" y="368" font-family="-apple-system, BlinkMacSystemFont, 'SF Pro Display', Arial, sans-serif" font-size="122" font-weight="800" fill="#49e59b" text-anchor="middle">$</text>
</svg>
